<?xml version="1.0" standalone="no"?><!DOCTYPE svg PUBLIC "-//W3C//DTD SVG 1.1//EN" "http://www.w3.org/Graphics/SVG/1.1/DTD/svg11.dtd"><svg t="1630379903667" class="icon" viewBox="0 0 1024 1024" version="1.1" xmlns="http://www.w3.org/2000/svg" p-id="1566" data-spm-anchor-id="a313x.7781069.0.i3" width="200" height="200" xmlns:xlink="http://www.w3.org/1999/xlink"><defs><style type="text/css"></style></defs><path d="M64 192.384C64 121.472 121.408 64 192.384 64h639.232C902.528 64 960 121.408 960 192.384v639.232A128.32 128.32 0 0 1 831.616 960H192.384A128.32 128.32 0 0 1 64 831.616V192.384z m435.84 592.448L251.328 549.824c-2.304 2.432-3.584 3.2-4.032 4.352-25.6 64.32-51.008 128.768-76.736 193.024-3.328 8.448 0.64 12.8 6.528 17.344 17.6 13.568 36.352 25.984 52.288 41.344 27.2 26.176 57.216 39.36 96.128 33.152 23.104-3.712 47.616 0.256 66.88-17.92 3.84-3.584 11.52-3.008 17.152-4.992 29.184-9.984 58.24-20.16 90.24-31.296z m134.72-581.248a194.944 194.944 0 0 0-76.992 26.048c2.048 2.56 2.816 4.16 4.032 5.12 84.224 64.064 168.192 128.576 253.12 191.68 9.6 7.168 25.024 6.848 39.36 10.368 0-8.96 0.832-13.568-0.192-17.6-9.152-35.328 7.296-67.84 14.08-100.672 5.248-25.088 13.696-48.704 9.92-74.944-1.984-13.632-4.288-24.832-18.432-31.872-12.8-6.336-25.344-14.08-35.84-23.552-24-21.376-48.128-23.04-78.528-12.16-35.52 12.928-73.024 23.488-110.528 27.584z m-425.664 17.536c-13.184 5.312-26.176 11.136-39.488 16.896 29.76 30.336 60.16 61.184 90.304 92.16 13.248 13.568 26.496 27.072 39.232 41.152 15.872 17.472 30.464 35.968 46.784 52.992 19.712 20.48 41.024 39.424 60.992 59.712 32 32.576 63.552 65.664 95.168 98.56 2.816 2.944 4.864 6.528 7.424 9.6 7.04 8.512 14.08 17.152 21.504 25.344 20.672 22.656 48.896 37.76 65.92 64.064a56.064 56.064 0 0 0 6.912 8.768 26260.48 26260.48 0 0 0 107.008 108.608c2.944 2.944 7.104 6.272 11.008 6.592 28.48 2.56 56.96 4.992 85.568 6.016 14.08 0.448 24.64-7.104 29.44-20.928 2.304-6.656 4.544-13.44 7.04-20.032 14.272-38.912 27.712-78.08 34.752-119.104 1.152-6.784-0.32-10.432-6.08-13.952-11.328-6.976-22.08-14.656-33.152-22.016-12.672-8.448-25.28-17.152-38.144-25.344-12.032-7.68-25.344-13.248-34.752-24.96-5.376-6.72-13.248-11.648-20.608-16.512a126899.84 126899.84 0 0 0-320.256-212.224 1043.712 1043.712 0 0 0-63.488-38.784c-9.152-5.12-20.864-5.888-24.128-18.688-0.512-2.112-4.672-3.456-7.36-4.864-15.04-8-29.952-16.128-45.12-23.808a59.584 59.584 0 0 1-25.024-22.976c-7.68-12.736-16.64-16.192-31.168-12.992a126.784 126.784 0 0 0-20.288 6.72z" fill="#FF4029" p-id="1567"></path></svg>